<?xml version="1.0" standalone="no"?><!DOCTYPE svg PUBLIC "-//W3C//DTD SVG 1.1//EN" "http://www.w3.org/Graphics/SVG/1.1/DTD/svg11.dtd"><svg class="icon" width="200px" height="200.00px" viewBox="0 0 1024 1024" version="1.1" xmlns="http://www.w3.org/2000/svg"><path fill="#333333" d="M360.592629 190.207829l302.798382 0c29.255507 0 54.122483 27.793345 54.122483 62.899544l0 519.290359c0 35.106199-24.866976 62.899544-54.122483 62.899544L360.592629 835.297277c-29.255507 0-54.122483-27.793345-54.122483-62.899544L306.470146 253.107374C306.468101 218.001174 331.337122 190.207829 360.592629 190.207829L360.592629 190.207829zM483.467394 794.340386c-7.314899 0-13.165592 5.850692-13.165592 14.627753l0 0c0 7.314899 5.850692 13.165592 13.165592 13.165592l57.048852 0c7.314899 0 13.165592-5.850692 13.165592-13.165592l0 0c0-8.777061-5.850692-14.627753-13.165592-14.627753L483.467394 794.340386 483.467394 794.340386zM335.725653 247.256681l0 530.993789 352.532334 0L688.257987 247.256681 335.725653 247.256681zM511.258694 1.507151c141.891049 0 269.154344 57.048852 361.309395 150.66811 93.619258 92.155051 150.66811 219.418347 150.66811 361.309395 0 140.428887-57.048852 267.690137-150.66811 359.847233-92.155051 93.619258-219.418347 150.66811-361.309395 150.66811-140.428887 0-267.690137-57.048852-359.847233-150.66811C57.794248 781.174794 0.745396 653.911499 0.745396 513.484657c0-141.891049 57.048852-269.154344 150.66811-361.309395C243.568557 58.556003 370.831852 1.507151 511.258694 1.507151L511.258694 1.507151zM831.611198 193.134198c-81.915828-81.915828-194.55137-131.651826-320.350459-131.651826-124.336927 0-236.972469 49.733953-318.888297 131.651826s-131.651826 194.55137-131.651826 320.350459c0 124.336927 49.733953 236.972469 131.651826 318.888297s194.55137 131.651826 318.888297 131.651826c125.799089 0 238.43463-49.733953 320.350459-131.651826s131.651826-194.55137 131.651826-318.888297C963.263024 387.685568 913.527026 275.050026 831.611198 193.134198z" /></svg>